{"title":"The Conjuring 2 2016 BRRip x264 AAC-SSN","uid":15700001,"size":1615984883,"categoryP":"video","categoryS":"movies","magnet":"?xt=urn:btih:e7765ab1190fc98131e80980bf477126a22c29e3&amp;dn=The+Conjuring+2+2016+BRRip+x264+AAC-SSN&amp;tr=udp%3A%2F%2Ftracker.leechers-paradise.org%3A6969&amp;tr=udp%3A%2F%2Fzer0day.ch%3A1337&amp;tr=udp%3A%2F%2Fopen.demonii.com%3A1337&amp;tr=udp%3A%2F%2Ftracker.coppersurfer.tk%3A6969&amp;tr=udp%3A%2F%2Fexodus.desync.com%3A6969","seeders":4,"leechers":0,"uploader":"somespirit","files":2,"time":1472467111,"description":"IMDB:  http://www.imdb.com/title/tt3065204\r\n\r\n Source: The.Conjuring.2.2016.720p.BluRay.x264-SPARKS\r\n\r\n\r\n\r\nGeneral\r\n Complete name                            : The Conjuring 2 2016 BRRip x264 AAC-SSN.mkv\r\n Format                                   : Matroska\r\n Format version                           : Version 4 / Version 2\r\n File size                                : 1.50 GiB\r\n Duration                                 : 2 h 13 min\r\n Overall bit rate                         : 1 609 kb/s\r\n Encoded date                             : UTC 2016-08-27 09:02:32\r\n Writing application                      : mkvmerge v8.6.1 ('Flying') 64bit\r\n Writing library                          : libebml v1.3.3 + libmatroska v1.4.4\r\n\r\n Video\r\n ID                                       : 1\r\n Format                                   : AVC\r\n Format/Info                              : Advanced Video Codec\r\n Format profile                           :   \r\n Format settings, CABAC                   : Yes\r\n Format settings, ReFrames                : 5 frames\r\n Codec ID                                 : V_MPEG4/ISO/AVC\r\n Duration                                 : 2 h 13 min\r\n Bit rate                                 : 1 282 kb/s\r\n Width                                    : 900 pixels\r\n Height                                   : 376 pixels\r\n Display aspect ratio                     : 2.40:1\r\n Frame rate mode                          : Constant\r\n Frame rate                               : 23.976 (24000/1001) FPS\r\n Color space                              : YUV\r\n Chroma subsampling                       : 4:2:0\r\n Bit depth                                : 8 bits\r\n Scan type                                : Progressive\r\n Bits/(Pixel*Frame)                       : 0.190\r\n Stream size                              : 1.20 GiB (80%)\r\n Writing library                          : x264 core 148 r2705 3f5ed56\r\n Language                                 : English\r\n Default                                  : Yes\r\n Forced                                   : No\r\n\r\n Audio\r\n ID                                       : 2\r\n Format                                   : AAC\r\n Format/Info                              : Advanced Audio Codec\r\n Format profile                           : LC\r\n Codec ID                                 : A_AAC\r\n Duration                                 : 2 h 13 min\r\n Bit rate                                 : 325 kb/s\r\n Channel(s)                               : 6 channels\r\n Channel positions                        : Front: L C R, Side: L R, LFE\r\n Sampling rate                            : 32.0 kHz\r\n Frame rate                               : 31.250 FPS (1024 spf)\r\n Compression mode                         : Lossy\r\n Stream size                              : 311 MiB (20%)\r\n Language                                 : English\r\n Default                                  : Yes\r\n Forced                                   : No","torrent":{"xt":"urn:btih:e7765ab1190fc98131e80980bf477126a22c29e3","amp;dn":"The+Conjuring+2+2016+BRRip+x264+AAC-SSN","amp;tr":["udp%3A%2F%2Ftracker.leechers-paradise.org%3A6969","udp%3A%2F%2Fzer0day.ch%3A1337","udp%3A%2F%2Fopen.demonii.com%3A1337","udp%3A%2F%2Ftracker.coppersurfer.tk%3A6969","udp%3A%2F%2Fexodus.desync.com%3A6969"],"infoHash":"e7765ab1190fc98131e80980bf477126a22c29e3","infoHashBuffer":{"type":"Buffer","data":[231,118,90,177,25,15,201,129,49,232,9,128,191,71,113,38,162,44,41,227]},"announce":[],"urlList":[]}}